<svg xmlns="http://www.w3.org/2000/svg"{% if include.width %} width="{{ include.width }}"{% endif %}{% if include.height %} height="{{ include.height }}"{% endif %}{% if include.class %} class="{{ include.class }}"{% endif %} viewBox="0 0 16 16" fill="currentColor"><path fill-rule="evenodd" d="M8.146 4.646a.5.5 0 0 1 .708 0l3 3a.5.5 0 0 1 0 .708l-3 3a.5.5 0 0 1-.708-.708L10.793 8 8.146 5.354a.5.5 0 0 1 0-.708z"/><path fill-rule="evenodd" d="M4 8a.5.5 0 0 1 .5-.5H11a.5.5 0 0 1 0 1H4.5A.5.5 0 0 1 4 8z"/></svg>
